# Blender v2.91.2 OBJ File: ''
# www.blender.org
mtllib coin.mtl
o coinGold
v -0.173205 0.100000 -0.050000
v 0.000000 0.057266 -0.050000
v 0.000000 0.000000 -0.050000
v -0.123611 0.128633 -0.050000
v -0.173205 0.300000 -0.050000
v -0.123611 0.271367 -0.050000
v 0.000000 0.342734 -0.050000
v 0.000000 0.400000 -0.050000
v 0.173205 0.100000 -0.050000
v 0.123612 0.128633 -0.050000
v 0.173205 0.300000 -0.050000
v 0.123612 0.271367 -0.050000
v 0.173205 0.100000 0.050000
v 0.000000 0.057266 0.050000
v 0.000000 -0.000000 0.050000
v 0.123612 0.128633 0.050000
v 0.173205 0.300000 0.050000
v 0.123612 0.271367 0.050000
v 0.000000 0.342734 0.050000
v 0.000000 0.400000 0.050000
v -0.173205 0.100000 0.050000
v -0.123611 0.128633 0.050000
v -0.173205 0.300000 0.050000
v -0.123611 0.271367 0.050000
v 0.123612 0.271367 0.010000
v 0.000000 0.342734 0.010000
v 0.000000 0.057266 -0.010000
v 0.123612 0.128633 -0.010000
v 0.000000 0.057266 0.010000
v -0.123611 0.128633 0.010000
v 0.000000 0.342734 -0.010000
v 0.123612 0.271367 -0.010000
v -0.123611 0.128633 -0.010000
v -0.123611 0.271367 -0.010000
v 0.123612 0.128633 0.010000
v -0.123611 0.271367 0.010000
v 0.083880 0.151572 0.010000
v -0.083880 0.151572 0.010000
v 0.000000 0.103144 0.010000
v 0.083880 0.248428 0.010000
v -0.083880 0.248428 0.010000
v 0.000000 0.296856 0.010000
v -0.083880 0.151572 -0.010000
v 0.083880 0.151572 -0.010000
v 0.000000 0.103144 -0.010000
v -0.083880 0.248428 -0.010000
v 0.083880 0.248428 -0.010000
v 0.000000 0.296856 -0.010000
vt 6.819098 3.937008
vt 0.000000 2.254560
vt 0.000000 0.000000
vt 4.866590 5.064287
vt 6.819098 11.811020
vt 4.866590 10.683740
vt 0.000000 13.493470
vt 0.000000 15.748030
vt -6.819098 3.937008
vt -4.866594 5.064287
vt -6.819098 11.811020
vt -4.866594 10.683740
vt 6.819098 3.937008
vt 0.000000 2.254560
vt 0.000000 0.000000
vt 4.866594 5.064287
vt 6.819098 11.811020
vt 4.866594 10.683740
vt 0.000000 13.493470
vt 0.000000 15.748030
vt -6.819098 3.937008
vt -4.866590 5.064287
vt -6.819098 11.811020
vt -4.866590 10.683740
vt 1.968504 3.937008
vt -1.968504 11.811020
vt -1.968504 3.937008
vt 1.968504 11.811020
vt -1.968504 11.811020
vt 1.968504 3.937008
vt 1.968504 11.811020
vt -1.968504 3.937008
vt -1.968504 7.874015
vt 1.968504 -0.000001
vt 1.968504 7.874015
vt -1.968504 -0.000001
vt 1.968504 6.746734
vt 0.393701 1.127275
vt 1.968504 1.127275
vt 0.393701 6.746734
vt -1.968504 6.746737
vt -0.393701 1.127279
vt -0.393701 6.746737
vt -1.968504 1.127279
vt -0.393701 1.127280
vt -1.968504 6.746735
vt -1.968504 1.127280
vt -0.393701 6.746735
vt 1.968504 -0.000001
vt -1.968504 7.874015
vt -1.968504 -0.000001
vt 1.968504 7.874015
vt -0.393701 6.746734
vt -1.968504 1.127275
vt -0.393701 1.127275
vt -1.968504 6.746734
vt 1.968504 1.127280
vt 0.393701 6.746735
vt 0.393701 1.127280
vt 1.968504 6.746735
vt 0.393701 1.127283
vt 1.968504 6.746738
vt 0.393701 6.746738
vt 1.968504 1.127283
vt 0.393701 10.683740
vt 1.968504 5.064287
vt 1.968504 10.683740
vt 0.393701 5.064287
vt -1.968504 0.000000
vt 1.968504 7.874016
vt -1.968504 7.874016
vt 1.968504 -0.000000
vt 0.393701 6.746737
vt 1.968504 1.127279
vt 1.968504 6.746737
vt 0.393701 1.127279
vt -0.393701 5.064287
vt -1.968504 10.683740
vt -1.968504 5.064287
vt -0.393701 10.683740
vt -1.968504 1.127283
vt -0.393701 6.746738
vt -1.968504 6.746738
vt -0.393701 1.127283
vt 3.302346 5.967405
vt -3.302346 5.967405
vt -0.000000 4.060795
vt 3.302346 9.780626
vt -3.302346 9.780626
vt -0.000000 11.687240
vt -1.968504 10.683740
vt -0.393701 5.064287
vt -0.393701 10.683740
vt -1.968504 5.064287
vt 1.968504 5.064287
vt 0.393701 10.683740
vt 0.393701 5.064287
vt 1.968504 10.683740
vt 3.302346 5.967405
vt -3.302346 5.967405
vt -0.000000 4.060795
vt 3.302346 9.780626
vt -3.302346 9.780626
vt -0.000000 11.687240
vt 1.968504 7.874016
vt -1.968504 0.000000
vt 1.968504 -0.000000
vt -1.968504 7.874016
vt 4.866590 5.064287
vt -0.000000 2.254560
vt 4.866590 10.683740
vt -0.000000 13.493470
vt -4.866594 5.064287
vt -4.866594 10.683740
vt 4.866594 5.064287
vt -0.000000 2.254560
vt 4.866594 10.683740
vt -0.000000 13.493470
vt -4.866590 5.064287
vt -4.866590 10.683740
vn 0.0000 0.0000 -1.0000
vn 0.0000 -0.0000 1.0000
vn -1.0000 0.0000 0.0000
vn 1.0000 -0.0000 0.0000
vn -0.5000 0.8660 0.0000
vn -0.5000 -0.8660 0.0000
vn 0.5000 0.8660 0.0000
vn 0.5000 -0.8660 0.0000
usemtl gold
s 1
f 1/1/1 2/2/1 3/3/1
f 2/2/1 1/1/1 4/4/1
f 4/4/1 1/1/1 5/5/1
f 4/4/1 5/5/1 6/6/1
f 6/6/1 5/5/1 7/7/1
f 7/7/1 5/5/1 8/8/1
f 2/2/1 9/9/1 3/3/1
f 9/9/1 2/2/1 10/10/1
f 9/9/1 10/10/1 11/11/1
f 11/11/1 7/7/1 8/8/1
f 11/11/1 10/10/1 12/12/1
f 11/11/1 12/12/1 7/7/1
f 13/13/2 14/14/2 15/15/2
f 14/14/2 13/13/2 16/16/2
f 16/16/2 13/13/2 17/17/2
f 16/16/2 17/17/2 18/18/2
f 18/18/2 17/17/2 19/19/2
f 19/19/2 17/17/2 20/20/2
f 14/14/2 21/21/2 15/15/2
f 21/21/2 14/14/2 22/22/2
f 21/21/2 22/22/2 23/23/2
f 23/23/2 19/19/2 20/20/2
f 23/23/2 22/22/2 24/24/2
f 23/23/2 24/24/2 19/19/2
f 21/25/3 5/26/3 1/27/3
f 5/26/3 21/25/3 23/28/3
f 17/29/4 9/30/4 11/31/4
f 9/30/4 17/29/4 13/32/4
f 8/33/5 23/34/5 20/35/5
f 23/34/5 8/33/5 5/36/5
f 19/37/6 25/38/6 18/39/6
f 25/38/6 19/37/6 26/40/6
f 10/41/5 27/42/5 28/43/5
f 27/42/5 10/41/5 2/44/5
f 29/45/7 22/46/7 14/47/7
f 22/46/7 29/45/7 30/48/7
f 11/49/7 20/50/7 17/51/7
f 20/50/7 11/49/7 8/52/7
f 31/53/6 12/54/6 32/55/6
f 12/54/6 31/53/6 7/56/6
f 2/57/7 33/58/7 27/59/7
f 33/58/7 2/57/7 4/60/7
f 34/61/8 7/62/8 31/63/8
f 7/62/8 34/61/8 6/64/8
f 34/65/4 4/66/4 6/67/4
f 4/66/4 34/65/4 33/68/4
f 15/69/8 9/70/8 13/71/8
f 9/70/8 15/69/8 3/72/8
f 35/73/5 14/74/5 16/75/5
f 14/74/5 35/73/5 29/76/5
f 28/77/3 12/78/3 10/79/3
f 12/78/3 28/77/3 32/80/3
f 24/81/8 26/82/8 19/83/8
f 26/82/8 24/81/8 36/84/8
f 37/85/2 38/86/2 39/87/2
f 38/86/2 37/85/2 40/88/2
f 38/86/2 40/88/2 41/89/2
f 41/89/2 40/88/2 42/90/2
f 24/91/4 30/92/4 36/93/4
f 30/92/4 24/91/4 22/94/4
f 16/95/3 25/96/3 35/97/3
f 25/96/3 16/95/3 18/98/3
f 43/99/1 44/100/1 45/101/1
f 44/100/1 43/99/1 46/102/1
f 44/100/1 46/102/1 47/103/1
f 47/103/1 46/102/1 48/104/1
f 21/105/6 3/106/6 15/107/6
f 3/106/6 21/105/6 1/108/6
usemtl wood
f 33/109/1 45/101/1 27/110/1
f 45/101/1 33/109/1 43/99/1
f 43/99/1 33/109/1 34/111/1
f 43/99/1 34/111/1 46/102/1
f 46/102/1 34/111/1 48/104/1
f 48/104/1 34/111/1 31/112/1
f 45/101/1 28/113/1 27/110/1
f 28/113/1 45/101/1 44/100/1
f 28/113/1 44/100/1 32/114/1
f 32/114/1 48/104/1 31/112/1
f 32/114/1 44/100/1 47/103/1
f 32/114/1 47/103/1 48/104/1
f 35/115/2 39/87/2 29/116/2
f 39/87/2 35/115/2 37/85/2
f 37/85/2 35/115/2 25/117/2
f 37/85/2 25/117/2 40/88/2
f 40/88/2 25/117/2 42/90/2
f 42/90/2 25/117/2 26/118/2
f 39/87/2 30/119/2 29/116/2
f 30/119/2 39/87/2 38/86/2
f 30/119/2 38/86/2 36/120/2
f 36/120/2 42/90/2 26/118/2
f 36/120/2 38/86/2 41/89/2
f 36/120/2 41/89/2 42/90/2
