# Blender v2.91.2 OBJ File: 'passport.blend'
# www.blender.org
mtllib passport.mtl
o Cube_Cube.001
v -0.021920 0.003032 0.172218
v -0.021920 0.392516 0.172218
v -0.021920 0.392516 -0.159982
v -0.021920 0.003032 -0.159982
v 0.074788 0.392516 -0.159982
v 0.074788 0.003032 -0.159982
v 0.074788 0.392516 0.172218
v 0.074788 0.003032 0.172218
v -0.016928 0.265772 0.116466
v -0.016928 0.351144 0.116466
v -0.016928 0.351144 -0.128702
v -0.016928 0.265772 -0.128702
v -0.035940 0.351144 -0.128702
v -0.035940 0.265772 -0.128702
v -0.035940 0.351144 0.116466
v -0.035940 0.265772 0.116466
vt 0.375000 0.000000
vt 0.625000 0.000000
vt 0.625000 0.250000
vt 0.375000 0.250000
vt 0.625000 0.500000
vt 0.375000 0.500000
vt 0.625000 0.750000
vt 0.375000 0.750000
vt 0.625000 1.000000
vt 0.375000 1.000000
vt 0.125000 0.500000
vt 0.125000 0.750000
vt 0.875000 0.500000
vt 0.875000 0.750000
vt 0.375000 0.000000
vt 0.625000 0.000000
vt 0.625000 0.250000
vt 0.375000 0.250000
vt 0.625000 0.500000
vt 0.375000 0.500000
vt 0.625000 0.750000
vt 0.375000 0.750000
vt 0.625000 1.000000
vt 0.375000 1.000000
vt 0.125000 0.500000
vt 0.125000 0.750000
vt 0.875000 0.500000
vt 0.875000 0.750000
vn -1.0000 0.0000 0.0000
vn 0.0000 0.0000 -1.0000
vn 1.0000 -0.0000 0.0000
vn 0.0000 -0.0000 1.0000
vn 0.0000 -1.0000 -0.0000
vn 0.0000 1.0000 0.0000
usemtl None
s off
f 1/1/1 2/2/1 3/3/1 4/4/1
f 4/4/2 3/3/2 5/5/2 6/6/2
f 6/6/3 5/5/3 7/7/3 8/8/3
f 8/8/4 7/7/4 2/9/4 1/10/4
f 4/11/5 6/6/5 8/8/5 1/12/5
f 5/5/6 3/13/6 2/14/6 7/7/6
f 9/15/1 10/16/1 11/17/1 12/18/1
f 12/18/4 11/17/4 13/19/4 14/20/4
f 14/20/3 13/19/3 15/21/3 16/22/3
f 16/22/2 15/21/2 10/23/2 9/24/2
f 12/25/6 14/20/6 16/22/6 9/26/6
f 13/19/5 11/27/5 10/28/5 15/21/5
