# Blender v2.91.2 OBJ File: ''
# www.blender.org
mtllib podium.mtl
o podium
v -0.805309 0.005451 1.382223
v -0.805309 0.005452 -0.023069
v 0.817721 0.005452 -0.023069
v 0.817721 0.005451 1.382223
v 0.817721 2.340149 1.350922
v 0.817721 1.911189 0.025162
v -0.805309 1.911189 0.025162
v -0.805309 2.340149 1.350922
v -0.634464 0.135419 1.234298
v 0.646876 0.135419 1.234298
v 0.646876 1.606274 1.234298
v -0.634464 1.606274 1.234298
v 0.646876 0.135419 0.124857
v 0.646876 1.606274 0.124857
v -0.634464 0.135419 0.124857
v -0.634464 1.606274 0.124857
v -0.719886 0.130621 0.050894
v -0.719886 0.130621 1.308260
v 0.732298 0.130621 0.050894
v 0.732298 0.130621 1.308260
v -0.719886 0.068032 0.050894
v -0.719886 0.068032 1.308260
v 0.732298 0.068032 0.050894
v 0.732298 0.068032 1.308260
v -0.805309 0.068041 -0.023069
v -0.805309 0.068041 1.382223
v 0.817721 0.068041 -0.023069
v 0.817721 0.068041 1.382223
v 0.732298 1.606274 1.308261
v -0.719886 1.606274 1.308261
v 0.732298 1.606274 0.050894
v -0.719886 1.606274 0.050894
v 0.732298 2.263464 1.308261
v -0.719886 2.263464 1.308261
v 0.732298 1.856632 0.050894
v -0.719886 1.856632 0.050894
v 0.817721 2.281687 1.377338
v -0.805309 2.281687 1.377338
v 0.817721 1.830151 -0.018198
v -0.805309 1.830151 -0.018198
v 0.817721 1.888613 -0.044614
v -0.805309 1.888613 -0.044614
v 0.817721 1.917842 -0.057820
v -0.805309 1.917842 -0.057820
v -0.805309 1.940418 0.011956
v 0.817721 1.940418 0.011956
vt 0.034100 0.341200
vt 0.034100 0.531400
vt 0.021400 0.544000
vt 0.021400 0.328500
vt 0.224200 0.531400
vt 0.236900 0.544000
vt 0.224200 0.341200
vt 0.236900 0.328500
vt 0.249800 0.299600
vt 0.009900 0.299600
vt 0.009900 0.285500
vt 0.249800 0.285500
vt 0.969600 0.299600
vt 0.729700 0.299600
vt 0.729700 0.285500
vt 0.969600 0.285500
vt 0.489700 0.299600
vt 0.489700 0.285500
vt 0.263800 0.060400
vt 0.263800 0.253200
vt 0.252400 0.264600
vt 0.252400 0.049100
vt 0.456600 0.253200
vt 0.467900 0.264600
vt 0.456600 0.060400
vt 0.467900 0.049100
vt 0.745100 0.027400
vt 0.500800 0.027400
vt 0.500800 0.014500
vt 0.745100 0.014500
vt 0.256500 0.027400
vt 0.256500 0.014500
vt 0.012300 0.027400
vt 0.012300 0.014500
vt 0.989300 0.027400
vt 0.989300 0.014500
vt 0.031400 0.834800
vt 0.221600 0.834800
vt 0.234200 0.847500
vt 0.018700 0.847500
vt 0.221600 0.644600
vt 0.234200 0.632000
vt 0.031400 0.644600
vt 0.018700 0.632000
vt 0.439200 0.573600
vt 0.618200 0.573600
vt 0.618200 0.684200
vt 0.439200 0.684200
vt 0.797300 0.573600
vt 0.797300 0.615800
vt 0.976400 0.573600
vt 0.976400 0.615800
vt 0.260100 0.573600
vt 0.260100 0.615800
vt 0.424900 0.924500
vt 0.606300 0.924500
vt 0.617000 0.934900
vt 0.414200 0.934900
vt 0.606300 0.730300
vt 0.617000 0.719400
vt 0.424900 0.730300
vt 0.414200 0.719400
vt 0.750700 0.956600
vt 0.984600 0.956600
vt 0.984600 0.968900
vt 0.750700 0.968900
vt 0.025600 0.956700
vt 0.271300 0.956600
vt 0.271300 0.968900
vt 0.259000 0.968800
vt 0.025600 0.968800
vt 0.505100 0.956600
vt 0.505100 0.968900
vt 0.517400 0.968800
vt 0.756800 0.695400
vt 0.972300 0.695400
vt 0.972300 0.701100
vt 0.756800 0.701100
vt 0.843900 0.082000
vt 0.974500 0.132000
vt 0.949800 0.196700
vt 0.819100 0.146700
vt 0.971800 0.718200
vt 0.757300 0.718200
vt 0.756800 0.712600
vt 0.972300 0.712600
vt 0.535500 0.136000
vt 0.666200 0.086000
vt 0.690900 0.150700
vt 0.560300 0.200700
vt 0.021300 0.261600
vt 0.021300 0.046100
vt 0.236800 0.046100
vt 0.236800 0.261600
vt 0.757800 0.933700
vt 0.971200 0.933700
vt 0.765100 0.325100
vt 0.902700 0.325100
vt 0.902700 0.540600
vt 0.765100 0.540600
vt 0.352400 0.325100
vt 0.490000 0.325100
vt 0.490000 0.540600
vt 0.352400 0.540600
vt 0.627600 0.325100
vt 0.627600 0.540600
vn -0.0561 0.9984 0.0000
vn 0.0000 0.9979 -0.0647
vn 0.0561 0.9984 0.0000
vn 0.0000 0.9979 0.0647
vn -1.0000 0.0000 0.0000
vn 0.0000 0.0000 -1.0000
vn 1.0000 0.0000 0.0000
vn 0.0000 0.0000 1.0000
vn 0.0001 1.0000 0.0000
vn 0.0000 1.0000 0.0001
vn -0.0001 1.0000 0.0000
vn 0.0000 1.0000 -0.0001
vn 0.0000 -1.0000 -0.0000
vn 0.0000 -0.9669 0.2551
vn -0.0459 -0.9504 0.3075
vn 0.0000 -0.9338 0.3579
vn 0.0459 -0.9504 0.3075
vn 0.0000 0.4118 0.9113
vn 0.0000 -0.4118 -0.9113
vn 0.0000 -0.4117 -0.9113
vn 0.0000 0.4117 0.9113
vn 0.0000 0.9514 -0.3078
usemtl 02___Default
s off
f 9/1/1 15/2/1 17/3/1 18/4/1
f 15/2/2 13/5/2 19/6/2 17/3/2
f 13/5/3 10/7/3 20/8/3 19/6/3
f 10/7/4 9/1/4 18/4/4 20/8/4
f 18/9/5 17/10/5 21/11/5 22/12/5
f 17/13/6 19/14/6 23/15/6 21/16/6
f 19/14/7 20/17/7 24/18/7 23/15/7
f 20/17/8 18/9/8 22/12/8 24/18/8
f 22/19/9 21/20/9 25/21/9 26/22/9
f 21/20/10 23/23/10 27/24/10 25/21/10
f 23/23/11 24/25/11 28/26/11 27/24/11
f 24/25/12 22/19/12 26/22/12 28/26/12
f 26/27/5 25/28/5 2/29/5 1/30/5
f 25/28/6 27/31/6 3/32/6 2/29/6
f 27/31/7 28/33/7 4/34/7 3/32/7
f 28/35/8 26/27/8 1/30/8 4/36/8
f 12/37/13 11/38/13 29/39/13 30/40/13
f 11/38/13 14/41/13 31/42/13 29/39/13
f 14/41/13 16/43/13 32/44/13 31/42/13
f 16/43/13 12/37/13 30/40/13 32/44/13
f 30/45/8 29/46/8 33/47/8 34/48/8
f 29/46/7 31/49/7 35/50/7 33/47/7
f 31/49/6 32/51/6 36/52/6 35/50/6
f 32/53/5 30/45/5 34/48/5 36/54/5
f 34/55/14 33/56/14 37/57/14 38/58/14
f 33/56/15 35/59/15 39/60/15 37/57/15
f 35/59/16 36/61/16 40/62/16 39/60/16
f 36/61/17 34/55/17 38/58/17 40/62/17
f 38/63/18 37/64/18 5/65/18 8/66/18
f 37/67/7 39/68/7 41/69/7 6/70/7
f 37/67/7 6/70/7 5/71/7
f 39/68/19 40/72/19 42/73/19 41/69/19
f 40/72/5 38/63/5 8/66/5 7/74/5
f 40/72/5 7/74/5 42/73/5
f 41/75/20 42/76/20 44/77/20 43/78/20
f 42/79/5 7/80/5 45/81/5 44/82/5
f 7/83/21 6/84/21 46/85/21 45/86/21
f 6/87/7 41/88/7 43/89/7 46/90/7
s 1
f 1/91/13 2/92/13 3/93/13 4/94/13
f 5/95/22 6/84/22 7/83/22 8/96/22
f 9/97/8 10/98/8 11/99/8 12/100/8
f 10/101/7 13/102/7 14/103/7 11/104/7
f 13/102/6 15/105/6 16/106/6 14/103/6
f 15/105/5 9/97/5 12/100/5 16/106/5
f 43/78/22 44/77/22 45/86/22 46/85/22
